<mxfile modified="2020-12-19T03:23:32.760Z" host="app.diagrams.net" agent="5.0 (Windows NT 10.0; Win64; x64) AppleWebKit/537.36 (KHTML, like Gecko) Chrome/86.0.4240.75 Safari/537.36 Edg/86.0.622.38" etag="qtY2RB3n3V_0haMWZAwq" version="13.8.6" type="github">
  <diagram id="53hk5bmk4DP6miZGaI69" name="Page-1">
    <mxGraphModel dx="1550" dy="836" grid="1" gridSize="10" guides="1" tooltips="1" connect="1" arrows="1" fold="1" page="1" pageScale="1" pageWidth="827" pageHeight="1169" math="0" shadow="0">
      <root>
        <mxCell id="0" />
        <mxCell id="1" parent="0" />
        <mxCell id="f392dosQeGkiUCD-6d_3-5" value="&lt;font color=&quot;#0000ff&quot; style=&quot;font-size: 14px&quot;&gt;预发布测试环境&lt;/font&gt;" style="html=1;whiteSpace=wrap;comic=1;strokeWidth=2;fontFamily=Comic Sans MS;fontStyle=1;align=center;verticalAlign=top;dashed=1;dashPattern=1 2;fillColor=#f5f5f5;strokeColor=#666666;fontColor=#333333;" parent="1" vertex="1">
          <mxGeometry x="110" y="120" width="510" height="260" as="geometry" />
        </mxCell>
        <mxCell id="0vtS9AQMp6WTo0PElCvp-21" style="edgeStyle=orthogonalEdgeStyle;rounded=0;orthogonalLoop=1;jettySize=auto;html=1;entryX=0.5;entryY=0;entryDx=0;entryDy=0;endArrow=diamond;endFill=1;strokeWidth=3;" parent="1" source="0vtS9AQMp6WTo0PElCvp-1" target="0vtS9AQMp6WTo0PElCvp-3" edge="1">
          <mxGeometry relative="1" as="geometry">
            <Array as="points">
              <mxPoint x="205" y="160" />
              <mxPoint x="540" y="160" />
            </Array>
          </mxGeometry>
        </mxCell>
        <mxCell id="0vtS9AQMp6WTo0PElCvp-1" value="天津（0.6架构）" style="rounded=0;whiteSpace=wrap;html=1;verticalAlign=top;strokeWidth=3;" parent="1" vertex="1">
          <mxGeometry x="130" y="180" width="150" height="110" as="geometry" />
        </mxCell>
        <mxCell id="0vtS9AQMp6WTo0PElCvp-22" style="edgeStyle=orthogonalEdgeStyle;rounded=0;orthogonalLoop=1;jettySize=auto;html=1;entryX=0.5;entryY=0;entryDx=0;entryDy=0;endArrow=diamond;endFill=1;startArrow=diamond;startFill=1;strokeWidth=3;" parent="1" source="0vtS9AQMp6WTo0PElCvp-2" target="0vtS9AQMp6WTo0PElCvp-1" edge="1">
          <mxGeometry relative="1" as="geometry">
            <Array as="points">
              <mxPoint x="380" y="160" />
              <mxPoint x="205" y="160" />
            </Array>
          </mxGeometry>
        </mxCell>
        <mxCell id="0vtS9AQMp6WTo0PElCvp-2" value="北京（1.0架构）" style="rounded=0;whiteSpace=wrap;html=1;verticalAlign=top;strokeWidth=3;" parent="1" vertex="1">
          <mxGeometry x="320" y="180" width="120" height="110" as="geometry" />
        </mxCell>
        <mxCell id="0vtS9AQMp6WTo0PElCvp-3" value="赣州&lt;br&gt;（种子云/合营云）" style="rounded=0;whiteSpace=wrap;html=1;verticalAlign=top;strokeWidth=3;" parent="1" vertex="1">
          <mxGeometry x="480" y="180" width="120" height="110" as="geometry" />
        </mxCell>
        <mxCell id="0vtS9AQMp6WTo0PElCvp-11" style="edgeStyle=orthogonalEdgeStyle;rounded=0;orthogonalLoop=1;jettySize=auto;html=1;entryX=0.5;entryY=1;entryDx=0;entryDy=0;strokeWidth=3;" parent="1" source="0vtS9AQMp6WTo0PElCvp-4" target="0vtS9AQMp6WTo0PElCvp-6" edge="1">
          <mxGeometry relative="1" as="geometry">
            <Array as="points">
              <mxPoint x="280" y="310" />
              <mxPoint x="170" y="310" />
            </Array>
          </mxGeometry>
        </mxCell>
        <mxCell id="0vtS9AQMp6WTo0PElCvp-15" style="edgeStyle=orthogonalEdgeStyle;rounded=0;orthogonalLoop=1;jettySize=auto;html=1;strokeWidth=3;" parent="1" source="0vtS9AQMp6WTo0PElCvp-4" target="0vtS9AQMp6WTo0PElCvp-3" edge="1">
          <mxGeometry relative="1" as="geometry">
            <Array as="points">
              <mxPoint x="280" y="310" />
              <mxPoint x="540" y="310" />
            </Array>
          </mxGeometry>
        </mxCell>
        <mxCell id="0vtS9AQMp6WTo0PElCvp-4" value="3Par" style="rounded=0;whiteSpace=wrap;html=1;strokeWidth=3;" parent="1" vertex="1">
          <mxGeometry x="240" y="330" width="80" height="40" as="geometry" />
        </mxCell>
        <mxCell id="0vtS9AQMp6WTo0PElCvp-18" style="edgeStyle=orthogonalEdgeStyle;rounded=0;orthogonalLoop=1;jettySize=auto;html=1;strokeWidth=3;" parent="1" source="0vtS9AQMp6WTo0PElCvp-5" target="0vtS9AQMp6WTo0PElCvp-10" edge="1">
          <mxGeometry relative="1" as="geometry" />
        </mxCell>
        <mxCell id="0vtS9AQMp6WTo0PElCvp-19" style="edgeStyle=orthogonalEdgeStyle;rounded=0;orthogonalLoop=1;jettySize=auto;html=1;entryX=0.5;entryY=1;entryDx=0;entryDy=0;strokeWidth=3;" parent="1" source="0vtS9AQMp6WTo0PElCvp-5" target="0vtS9AQMp6WTo0PElCvp-7" edge="1">
          <mxGeometry relative="1" as="geometry">
            <Array as="points">
              <mxPoint x="400" y="300" />
              <mxPoint x="240" y="300" />
            </Array>
          </mxGeometry>
        </mxCell>
        <mxCell id="0vtS9AQMp6WTo0PElCvp-5" value="Cerberus" style="rounded=0;whiteSpace=wrap;html=1;strokeWidth=3;" parent="1" vertex="1">
          <mxGeometry x="360" y="330" width="80" height="40" as="geometry" />
        </mxCell>
        <mxCell id="0vtS9AQMp6WTo0PElCvp-6" value="天津" style="whiteSpace=wrap;html=1;aspect=fixed;strokeWidth=3;" parent="1" vertex="1">
          <mxGeometry x="140" y="210" width="60" height="60" as="geometry" />
        </mxCell>
        <mxCell id="0vtS9AQMp6WTo0PElCvp-7" value="天津2" style="whiteSpace=wrap;html=1;aspect=fixed;strokeWidth=3;" parent="1" vertex="1">
          <mxGeometry x="210" y="210" width="60" height="60" as="geometry" />
        </mxCell>
        <mxCell id="0vtS9AQMp6WTo0PElCvp-10" value="北京" style="whiteSpace=wrap;html=1;aspect=fixed;strokeWidth=3;" parent="1" vertex="1">
          <mxGeometry x="350" y="210" width="60" height="60" as="geometry" />
        </mxCell>
        <mxCell id="f392dosQeGkiUCD-6d_3-9" style="edgeStyle=orthogonalEdgeStyle;rounded=0;orthogonalLoop=1;jettySize=auto;html=1;entryX=0.5;entryY=0;entryDx=0;entryDy=0;strokeWidth=2;endSize=2;" parent="1" source="f392dosQeGkiUCD-6d_3-2" target="f392dosQeGkiUCD-6d_3-5" edge="1">
          <mxGeometry relative="1" as="geometry" />
        </mxCell>
        <mxCell id="f392dosQeGkiUCD-6d_3-16" style="edgeStyle=orthogonalEdgeStyle;rounded=0;orthogonalLoop=1;jettySize=auto;html=1;entryX=-0.05;entryY=0.071;entryDx=0;entryDy=0;entryPerimeter=0;startArrow=classic;startFill=1;strokeWidth=2;endSize=2;startSize=2;" parent="1" source="f392dosQeGkiUCD-6d_3-2" target="f392dosQeGkiUCD-6d_3-4" edge="1">
          <mxGeometry relative="1" as="geometry" />
        </mxCell>
        <mxCell id="f392dosQeGkiUCD-6d_3-2" value="&lt;font color=&quot;#0000ff&quot; style=&quot;font-size: 14px&quot;&gt;预发布管理平台&lt;br&gt;&lt;/font&gt;&lt;font style=&quot;font-size: 12px&quot;&gt;计划任务管理/环境自动部署/测试脚本调度/环境健康巡检/&lt;br&gt;&lt;font style=&quot;font-size: 12px&quot;&gt;版本管理&lt;/font&gt;/配置管理/数据管理/&lt;/font&gt;&lt;font style=&quot;font-size: 12px&quot;&gt;&lt;font style=&quot;font-size: 12px&quot;&gt;需求管理/故障管理&lt;/font&gt;&lt;br&gt;&lt;/font&gt;" style="html=1;whiteSpace=wrap;comic=1;strokeWidth=2;fontFamily=Comic Sans MS;fontStyle=1;dashed=1;dashPattern=1 2;fillColor=#f5f5f5;strokeColor=#666666;fontColor=#333333;" parent="1" vertex="1">
          <mxGeometry x="110" y="40" width="510" height="60" as="geometry" />
        </mxCell>
        <mxCell id="f392dosQeGkiUCD-6d_3-8" style="edgeStyle=orthogonalEdgeStyle;rounded=0;orthogonalLoop=1;jettySize=auto;html=1;entryX=0.5;entryY=1;entryDx=0;entryDy=0;strokeWidth=2;endSize=2;" parent="1" source="f392dosQeGkiUCD-6d_3-3" target="f392dosQeGkiUCD-6d_3-5" edge="1">
          <mxGeometry relative="1" as="geometry" />
        </mxCell>
        <mxCell id="f392dosQeGkiUCD-6d_3-17" style="edgeStyle=orthogonalEdgeStyle;rounded=0;orthogonalLoop=1;jettySize=auto;html=1;entryX=-0.04;entryY=0.929;entryDx=0;entryDy=0;entryPerimeter=0;startArrow=classic;startFill=1;strokeWidth=2;endSize=2;startSize=2;" parent="1" source="f392dosQeGkiUCD-6d_3-3" target="f392dosQeGkiUCD-6d_3-4" edge="1">
          <mxGeometry relative="1" as="geometry" />
        </mxCell>
        <mxCell id="f392dosQeGkiUCD-6d_3-3" value="&lt;font style=&quot;font-size: 14px&quot;&gt;&lt;font color=&quot;#0000ff&quot; style=&quot;font-size: 14px&quot;&gt;预发布维护小组&lt;/font&gt;&lt;br&gt;&lt;/font&gt;计算+存储+网络+运营平台" style="html=1;whiteSpace=wrap;comic=1;strokeWidth=2;fontFamily=Comic Sans MS;fontStyle=1;dashed=1;dashPattern=1 2;fillColor=#f5f5f5;strokeColor=#666666;fontColor=#333333;" parent="1" vertex="1">
          <mxGeometry x="110" y="400" width="510" height="60" as="geometry" />
        </mxCell>
        <mxCell id="f392dosQeGkiUCD-6d_3-10" style="edgeStyle=orthogonalEdgeStyle;rounded=0;orthogonalLoop=1;jettySize=auto;html=1;strokeWidth=2;endSize=2;" parent="1" source="f392dosQeGkiUCD-6d_3-4" target="f392dosQeGkiUCD-6d_3-5" edge="1">
          <mxGeometry relative="1" as="geometry" />
        </mxCell>
        <mxCell id="f392dosQeGkiUCD-6d_3-4" value="&lt;font color=&quot;#0000ff&quot; style=&quot;font-size: 14px&quot;&gt;预发布&lt;br&gt;流程规范&lt;/font&gt;" style="html=1;whiteSpace=wrap;comic=1;strokeWidth=2;fontFamily=Comic Sans MS;fontStyle=1;dashed=1;dashPattern=1 2;fillColor=#f5f5f5;strokeColor=#666666;fontColor=#333333;" parent="1" vertex="1">
          <mxGeometry x="650" y="40" width="70" height="420" as="geometry" />
        </mxCell>
        <mxCell id="ZqDzwXTlE2TuufaiZ5OA-1" value="&lt;font style=&quot;font-size: 14px&quot;&gt;预发环境（北京机房）&lt;/font&gt;" style="html=1;whiteSpace=wrap;comic=1;strokeWidth=2;fontFamily=Comic Sans MS;fontStyle=1;align=center;verticalAlign=top;dashed=1;dashPattern=1 2;fillColor=#f5f5f5;strokeColor=#666666;fontColor=#6600CC;" vertex="1" parent="1">
          <mxGeometry x="460" y="500" width="160" height="260" as="geometry" />
        </mxCell>
        <mxCell id="ZqDzwXTlE2TuufaiZ5OA-2" value="&lt;font style=&quot;font-size: 14px&quot;&gt;预发环境（天津机房）&lt;/font&gt;" style="html=1;whiteSpace=wrap;comic=1;strokeWidth=2;fontFamily=Comic Sans MS;fontStyle=1;align=center;verticalAlign=top;dashed=1;dashPattern=1 2;fillColor=#f5f5f5;strokeColor=#666666;fontColor=#6600CC;" vertex="1" parent="1">
          <mxGeometry x="110" y="500" width="350" height="260" as="geometry" />
        </mxCell>
        <mxCell id="ZqDzwXTlE2TuufaiZ5OA-3" style="edgeStyle=orthogonalEdgeStyle;rounded=0;orthogonalLoop=1;jettySize=auto;html=1;entryX=0.5;entryY=0;entryDx=0;entryDy=0;endArrow=diamond;endFill=1;strokeWidth=3;" edge="1" parent="1" source="ZqDzwXTlE2TuufaiZ5OA-4" target="ZqDzwXTlE2TuufaiZ5OA-7">
          <mxGeometry relative="1" as="geometry">
            <Array as="points">
              <mxPoint x="205" y="540" />
              <mxPoint x="540" y="540" />
            </Array>
          </mxGeometry>
        </mxCell>
        <mxCell id="ZqDzwXTlE2TuufaiZ5OA-4" value="天津（0.6架构）" style="rounded=0;whiteSpace=wrap;html=1;verticalAlign=top;strokeWidth=3;fillColor=#d5e8d4;strokeColor=#82b366;" vertex="1" parent="1">
          <mxGeometry x="130" y="560" width="150" height="110" as="geometry" />
        </mxCell>
        <mxCell id="ZqDzwXTlE2TuufaiZ5OA-5" style="edgeStyle=orthogonalEdgeStyle;rounded=0;orthogonalLoop=1;jettySize=auto;html=1;entryX=0.5;entryY=0;entryDx=0;entryDy=0;endArrow=diamond;endFill=1;startArrow=diamond;startFill=1;strokeWidth=3;" edge="1" parent="1" source="ZqDzwXTlE2TuufaiZ5OA-6" target="ZqDzwXTlE2TuufaiZ5OA-4">
          <mxGeometry relative="1" as="geometry">
            <Array as="points">
              <mxPoint x="380" y="540" />
              <mxPoint x="205" y="540" />
            </Array>
          </mxGeometry>
        </mxCell>
        <mxCell id="ZqDzwXTlE2TuufaiZ5OA-6" value="北京（1.0架构）" style="rounded=0;whiteSpace=wrap;html=1;verticalAlign=top;strokeWidth=3;fillColor=#d5e8d4;strokeColor=#82b366;" vertex="1" parent="1">
          <mxGeometry x="320" y="560" width="120" height="110" as="geometry" />
        </mxCell>
        <mxCell id="ZqDzwXTlE2TuufaiZ5OA-7" value="廊坊&lt;br&gt;（种子云/合营云）" style="rounded=0;whiteSpace=wrap;html=1;verticalAlign=top;strokeWidth=3;fillColor=#ffe6cc;strokeColor=#d79b00;" vertex="1" parent="1">
          <mxGeometry x="480" y="560" width="120" height="110" as="geometry" />
        </mxCell>
        <mxCell id="ZqDzwXTlE2TuufaiZ5OA-8" style="edgeStyle=orthogonalEdgeStyle;rounded=0;orthogonalLoop=1;jettySize=auto;html=1;entryX=0.5;entryY=1;entryDx=0;entryDy=0;strokeWidth=3;" edge="1" parent="1" source="ZqDzwXTlE2TuufaiZ5OA-10" target="ZqDzwXTlE2TuufaiZ5OA-14">
          <mxGeometry relative="1" as="geometry">
            <Array as="points">
              <mxPoint x="280" y="690" />
              <mxPoint x="170" y="690" />
            </Array>
          </mxGeometry>
        </mxCell>
        <mxCell id="ZqDzwXTlE2TuufaiZ5OA-9" style="edgeStyle=orthogonalEdgeStyle;rounded=0;orthogonalLoop=1;jettySize=auto;html=1;strokeWidth=3;entryX=0.5;entryY=1;entryDx=0;entryDy=0;" edge="1" parent="1" source="ZqDzwXTlE2TuufaiZ5OA-10" target="ZqDzwXTlE2TuufaiZ5OA-16">
          <mxGeometry relative="1" as="geometry">
            <Array as="points">
              <mxPoint x="280" y="690" />
              <mxPoint x="380" y="690" />
            </Array>
          </mxGeometry>
        </mxCell>
        <mxCell id="ZqDzwXTlE2TuufaiZ5OA-10" value="3Par" style="rounded=0;whiteSpace=wrap;html=1;strokeWidth=3;fillColor=#e1d5e7;strokeColor=#9673a6;" vertex="1" parent="1">
          <mxGeometry x="240" y="710" width="80" height="40" as="geometry" />
        </mxCell>
        <mxCell id="ZqDzwXTlE2TuufaiZ5OA-11" style="edgeStyle=orthogonalEdgeStyle;rounded=0;orthogonalLoop=1;jettySize=auto;html=1;strokeWidth=3;" edge="1" parent="1" source="ZqDzwXTlE2TuufaiZ5OA-13" target="ZqDzwXTlE2TuufaiZ5OA-16">
          <mxGeometry relative="1" as="geometry" />
        </mxCell>
        <mxCell id="ZqDzwXTlE2TuufaiZ5OA-12" style="edgeStyle=orthogonalEdgeStyle;rounded=0;orthogonalLoop=1;jettySize=auto;html=1;entryX=0.5;entryY=1;entryDx=0;entryDy=0;strokeWidth=3;fillColor=#f5f5f5;strokeColor=#666666;dashed=1;" edge="1" parent="1" source="ZqDzwXTlE2TuufaiZ5OA-13" target="ZqDzwXTlE2TuufaiZ5OA-15">
          <mxGeometry relative="1" as="geometry">
            <Array as="points">
              <mxPoint x="380" y="680" />
              <mxPoint x="240" y="680" />
            </Array>
          </mxGeometry>
        </mxCell>
        <mxCell id="ZqDzwXTlE2TuufaiZ5OA-13" value="Cerberus" style="rounded=0;whiteSpace=wrap;html=1;strokeWidth=3;" vertex="1" parent="1">
          <mxGeometry x="340" y="710" width="80" height="40" as="geometry" />
        </mxCell>
        <mxCell id="ZqDzwXTlE2TuufaiZ5OA-14" value="AZ-1" style="whiteSpace=wrap;html=1;aspect=fixed;strokeWidth=3;" vertex="1" parent="1">
          <mxGeometry x="140" y="590" width="60" height="60" as="geometry" />
        </mxCell>
        <mxCell id="ZqDzwXTlE2TuufaiZ5OA-15" value="AZ-2" style="whiteSpace=wrap;html=1;aspect=fixed;strokeWidth=3;fillColor=#f5f5f5;strokeColor=#666666;fontColor=#333333;dashed=1;" vertex="1" parent="1">
          <mxGeometry x="210" y="590" width="60" height="60" as="geometry" />
        </mxCell>
        <mxCell id="ZqDzwXTlE2TuufaiZ5OA-16" value="北京" style="whiteSpace=wrap;html=1;aspect=fixed;strokeWidth=3;" vertex="1" parent="1">
          <mxGeometry x="350" y="590" width="60" height="60" as="geometry" />
        </mxCell>
        <mxCell id="ZqDzwXTlE2TuufaiZ5OA-17" value="Cerberus" style="rounded=0;whiteSpace=wrap;html=1;strokeWidth=3;fillColor=#ffe6cc;strokeColor=#d79b00;" vertex="1" parent="1">
          <mxGeometry x="500" y="710" width="80" height="40" as="geometry" />
        </mxCell>
        <mxCell id="ZqDzwXTlE2TuufaiZ5OA-18" style="edgeStyle=orthogonalEdgeStyle;rounded=0;orthogonalLoop=1;jettySize=auto;html=1;strokeWidth=3;exitX=0.5;exitY=0;exitDx=0;exitDy=0;entryX=0.5;entryY=1;entryDx=0;entryDy=0;fillColor=#ffe6cc;strokeColor=#d79b00;" edge="1" parent="1" source="ZqDzwXTlE2TuufaiZ5OA-17" target="ZqDzwXTlE2TuufaiZ5OA-7">
          <mxGeometry relative="1" as="geometry">
            <mxPoint x="390" y="720" as="sourcePoint" />
            <mxPoint x="390" y="660" as="targetPoint" />
          </mxGeometry>
        </mxCell>
        <mxCell id="ZqDzwXTlE2TuufaiZ5OA-19" value="&lt;font style=&quot;font-size: 14px&quot; color=&quot;#cc0000&quot;&gt;测试环境（成都机房）&lt;/font&gt;" style="html=1;whiteSpace=wrap;comic=1;strokeWidth=2;fontFamily=Comic Sans MS;fontStyle=1;align=center;verticalAlign=bottom;dashed=1;dashPattern=1 2;fillColor=#fff2cc;strokeColor=#d6b656;" vertex="1" parent="1">
          <mxGeometry x="460" y="760" width="160" height="260" as="geometry" />
        </mxCell>
        <mxCell id="ZqDzwXTlE2TuufaiZ5OA-20" value="&lt;font style=&quot;font-size: 14px&quot; color=&quot;#cc0000&quot;&gt;测试环境（天津机房）&lt;/font&gt;" style="html=1;whiteSpace=wrap;comic=1;strokeWidth=2;fontFamily=Comic Sans MS;fontStyle=1;align=center;verticalAlign=bottom;dashed=1;dashPattern=1 2;fillColor=#fff2cc;strokeColor=#d6b656;" vertex="1" parent="1">
          <mxGeometry x="110" y="760" width="350" height="260" as="geometry" />
        </mxCell>
        <mxCell id="ZqDzwXTlE2TuufaiZ5OA-21" value="成都（0.6架构）" style="rounded=0;whiteSpace=wrap;html=1;verticalAlign=middle;strokeWidth=3;fillColor=#d5e8d4;strokeColor=#82b366;" vertex="1" parent="1">
          <mxGeometry x="480" y="850" width="120" height="110" as="geometry" />
        </mxCell>
        <mxCell id="ZqDzwXTlE2TuufaiZ5OA-22" value="成都存储" style="rounded=0;whiteSpace=wrap;html=1;strokeWidth=3;fillColor=#dae8fc;strokeColor=#6c8ebf;" vertex="1" parent="1">
          <mxGeometry x="500" y="770" width="80" height="40" as="geometry" />
        </mxCell>
        <mxCell id="ZqDzwXTlE2TuufaiZ5OA-23" style="edgeStyle=orthogonalEdgeStyle;rounded=0;orthogonalLoop=1;jettySize=auto;html=1;strokeWidth=3;exitX=0.5;exitY=1;exitDx=0;exitDy=0;entryX=0.5;entryY=0;entryDx=0;entryDy=0;fillColor=#dae8fc;strokeColor=#6c8ebf;" edge="1" parent="1" source="ZqDzwXTlE2TuufaiZ5OA-22" target="ZqDzwXTlE2TuufaiZ5OA-21">
          <mxGeometry relative="1" as="geometry">
            <mxPoint x="400" y="990" as="sourcePoint" />
            <mxPoint x="400" y="930" as="targetPoint" />
          </mxGeometry>
        </mxCell>
        <mxCell id="ZqDzwXTlE2TuufaiZ5OA-24" value="廊坊&lt;br&gt;（种子云/合营云）" style="rounded=0;whiteSpace=wrap;html=1;verticalAlign=middle;strokeWidth=3;" vertex="1" parent="1">
          <mxGeometry x="130" y="820" width="120" height="80" as="geometry" />
        </mxCell>
        <mxCell id="ZqDzwXTlE2TuufaiZ5OA-25" value="北京（1.0架构）" style="rounded=0;whiteSpace=wrap;html=1;verticalAlign=middle;strokeWidth=3;fillColor=#d5e8d4;strokeColor=#82b366;" vertex="1" parent="1">
          <mxGeometry x="280" y="790" width="150" height="110" as="geometry" />
        </mxCell>
        <mxCell id="ZqDzwXTlE2TuufaiZ5OA-26" style="edgeStyle=orthogonalEdgeStyle;rounded=0;orthogonalLoop=1;jettySize=auto;html=1;strokeWidth=3;exitX=0.5;exitY=1;exitDx=0;exitDy=0;entryX=0.5;entryY=0;entryDx=0;entryDy=0;fillColor=#e1d5e7;strokeColor=#9673a6;" edge="1" parent="1" source="ZqDzwXTlE2TuufaiZ5OA-10" target="ZqDzwXTlE2TuufaiZ5OA-25">
          <mxGeometry relative="1" as="geometry">
            <Array as="points">
              <mxPoint x="280" y="760" />
              <mxPoint x="355" y="760" />
            </Array>
            <mxPoint x="290" y="720" as="sourcePoint" />
            <mxPoint x="355" y="850" as="targetPoint" />
          </mxGeometry>
        </mxCell>
        <mxCell id="ZqDzwXTlE2TuufaiZ5OA-27" value="&lt;b&gt;&lt;font&gt;&lt;font&gt;@黄丽娟&lt;/font&gt; 考虑扩充SSD提升3Par存储IO性能&lt;/font&gt;&lt;/b&gt;" style="text;html=1;strokeColor=none;fillColor=none;align=left;verticalAlign=middle;whiteSpace=wrap;rounded=0;dashed=1;fontColor=#0000FF;" vertex="1" parent="1">
          <mxGeometry x="110" y="720" width="130" height="20" as="geometry" />
        </mxCell>
        <mxCell id="ZqDzwXTlE2TuufaiZ5OA-28" value="UCO-A&lt;br&gt;（合营云）" style="rounded=0;whiteSpace=wrap;html=1;verticalAlign=top;strokeWidth=3;fillColor=#e1d5e7;strokeColor=#9673a6;" vertex="1" parent="1">
          <mxGeometry x="130" y="939" width="120" height="50" as="geometry" />
        </mxCell>
        <mxCell id="ZqDzwXTlE2TuufaiZ5OA-29" value="UCO-B&lt;br&gt;（含牧野模块）" style="rounded=0;whiteSpace=wrap;html=1;verticalAlign=top;strokeWidth=3;fillColor=#e1d5e7;strokeColor=#9673a6;" vertex="1" parent="1">
          <mxGeometry x="280" y="939" width="150" height="50" as="geometry" />
        </mxCell>
        <mxCell id="ZqDzwXTlE2TuufaiZ5OA-30" style="edgeStyle=orthogonalEdgeStyle;rounded=0;orthogonalLoop=1;jettySize=auto;html=1;entryX=0.5;entryY=1;entryDx=0;entryDy=0;endArrow=diamond;endFill=1;startArrow=diamond;startFill=1;strokeWidth=3;exitX=0.5;exitY=0;exitDx=0;exitDy=0;" edge="1" parent="1" source="ZqDzwXTlE2TuufaiZ5OA-28" target="ZqDzwXTlE2TuufaiZ5OA-24">
          <mxGeometry relative="1" as="geometry">
            <Array as="points">
              <mxPoint x="190" y="920" />
              <mxPoint x="190" y="920" />
            </Array>
            <mxPoint x="45" y="870" as="sourcePoint" />
            <mxPoint x="-130" y="870" as="targetPoint" />
          </mxGeometry>
        </mxCell>
        <mxCell id="ZqDzwXTlE2TuufaiZ5OA-31" style="edgeStyle=orthogonalEdgeStyle;rounded=0;orthogonalLoop=1;jettySize=auto;html=1;entryX=0.5;entryY=1;entryDx=0;entryDy=0;endArrow=diamond;endFill=1;startArrow=diamond;startFill=1;strokeWidth=3;exitX=0.5;exitY=0;exitDx=0;exitDy=0;" edge="1" parent="1" source="ZqDzwXTlE2TuufaiZ5OA-29" target="ZqDzwXTlE2TuufaiZ5OA-25">
          <mxGeometry relative="1" as="geometry">
            <Array as="points">
              <mxPoint x="355" y="920" />
              <mxPoint x="355" y="920" />
            </Array>
            <mxPoint x="200" y="949" as="sourcePoint" />
            <mxPoint x="200" y="910" as="targetPoint" />
          </mxGeometry>
        </mxCell>
        <mxCell id="ZqDzwXTlE2TuufaiZ5OA-32" style="edgeStyle=orthogonalEdgeStyle;rounded=0;orthogonalLoop=1;jettySize=auto;html=1;entryX=0;entryY=0.75;entryDx=0;entryDy=0;endArrow=diamond;endFill=1;startArrow=diamond;startFill=1;strokeWidth=3;exitX=0.5;exitY=0;exitDx=0;exitDy=0;" edge="1" parent="1" source="ZqDzwXTlE2TuufaiZ5OA-29" target="ZqDzwXTlE2TuufaiZ5OA-21">
          <mxGeometry relative="1" as="geometry">
            <Array as="points">
              <mxPoint x="355" y="920" />
              <mxPoint x="460" y="920" />
              <mxPoint x="460" y="939" />
              <mxPoint x="480" y="939" />
            </Array>
            <mxPoint x="430" y="964" as="sourcePoint" />
            <mxPoint x="480" y="905" as="targetPoint" />
          </mxGeometry>
        </mxCell>
        <mxCell id="ZqDzwXTlE2TuufaiZ5OA-33" style="edgeStyle=orthogonalEdgeStyle;rounded=0;orthogonalLoop=1;jettySize=auto;html=1;entryX=0.5;entryY=1;entryDx=0;entryDy=0;endArrow=diamond;endFill=1;startArrow=diamond;startFill=1;strokeWidth=3;exitX=0.5;exitY=0;exitDx=0;exitDy=0;" edge="1" parent="1" source="ZqDzwXTlE2TuufaiZ5OA-29" target="ZqDzwXTlE2TuufaiZ5OA-24">
          <mxGeometry relative="1" as="geometry">
            <Array as="points">
              <mxPoint x="355" y="920" />
              <mxPoint x="190" y="920" />
            </Array>
            <mxPoint x="200" y="949" as="sourcePoint" />
            <mxPoint x="200" y="910" as="targetPoint" />
          </mxGeometry>
        </mxCell>
        <mxCell id="ZqDzwXTlE2TuufaiZ5OA-34" value="牧野开发环境" style="rounded=0;whiteSpace=wrap;html=1;verticalAlign=middle;strokeWidth=3;fillColor=#f8cecc;strokeColor=#b85450;" vertex="1" parent="1">
          <mxGeometry x="280" y="1040" width="150" height="110" as="geometry" />
        </mxCell>
        <mxCell id="ZqDzwXTlE2TuufaiZ5OA-35" style="edgeStyle=orthogonalEdgeStyle;rounded=0;orthogonalLoop=1;jettySize=auto;html=1;endArrow=diamond;endFill=1;startArrow=diamond;startFill=1;strokeWidth=3;exitX=0.5;exitY=0;exitDx=0;exitDy=0;fillColor=#f8cecc;strokeColor=#b85450;" edge="1" parent="1" source="ZqDzwXTlE2TuufaiZ5OA-34">
          <mxGeometry relative="1" as="geometry">
            <Array as="points">
              <mxPoint x="355" y="1030" />
              <mxPoint x="355" y="1030" />
            </Array>
            <mxPoint x="200" y="949" as="sourcePoint" />
            <mxPoint x="355" y="989" as="targetPoint" />
          </mxGeometry>
        </mxCell>
        <mxCell id="ZqDzwXTlE2TuufaiZ5OA-36" value="&lt;b&gt;&lt;font&gt;&lt;font&gt;@张雨琪&lt;/font&gt;&amp;nbsp;数据库环境接入集群环境做牧野改造&lt;/font&gt;&lt;/b&gt;" style="text;html=1;strokeColor=none;fillColor=none;align=left;verticalAlign=middle;whiteSpace=wrap;rounded=0;dashed=1;fontColor=#0000FF;" vertex="1" parent="1">
          <mxGeometry x="110" y="780" width="130" height="20" as="geometry" />
        </mxCell>
      </root>
    </mxGraphModel>
  </diagram>
</mxfile>
